<?xml version="1.0" ?>
<!-- Uploaded to: SVG Repo, www.svgrepo.com, Generator: SVG Repo Mixer Tools -->
<svg fill="#000000" width="800px" height="800px" viewBox="0 0 512 512" xmlns="http://www.w3.org/2000/svg">
<g id="Green_economic">
<path d="M339.25,181.44a82,82,0,1,0-82,82A82.07,82.07,0,0,0,339.25,181.44ZM232.57,223.2v-17h25a7.61,7.61,0,0,0,7.6-7.6v-2.26a7.61,7.61,0,0,0-7.6-7.6h-.25a24.6,24.6,0,0,1-8.5-47.68V128.88h17v10.67H283v17H257.31a7.6,7.6,0,0,0,0,15.19h.25a24.63,24.63,0,0,1,24.6,24.6v2.26a24.64,24.64,0,0,1-16.35,23.17v13.11h-17V223.2Z"/>
<path d="M342.88,324c-18.17-.86-51.89,1.14-76.61,23.6V301.39a119.28,119.28,0,1,0-18,0v46c-24.7-22.3-58.3-24.28-76.41-23.42a23.88,23.88,0,0,0-22.8,22.8c-.88,18.58,1.22,53.46,25.18,78.31,17.26,17.91,42.45,27.23,74.92,27.75,1,0,18.51,0,20.94-.13,30.3-1.28,53.95-10.55,70.41-27.62,24-24.85,26.05-59.73,25.17-78.31A23.87,23.87,0,0,0,342.88,324ZM159.29,181.44a98,98,0,1,1,98,98A98.1,98.1,0,0,1,159.29,181.44ZM167,347.61a6,6,0,0,1,5.68-5.68c15.68-.74,45,.88,65,20.16,13.15,12.67,20.52,31.34,22,55.57a74.26,74.26,0,0,0-35.06-27.32l-6.08,18.39c.94.33,19.33,6.81,28.64,26-26.36-.8-46.54-8.25-60-22.18C167.92,392.58,166.3,363.29,167,347.61Zm160.51,65c-11.72,12.15-28.59,19.37-50.21,21.54a25.35,25.35,0,0,0,.59-5.13c.24-21.48-3.22-39.92-10.31-55.16a61.43,61.43,0,0,1,9.45-11.73c17.69-17.06,42.68-20.3,59.06-20.3,2.12,0,4.1.06,5.9.14a6,6,0,0,1,5.67,5.68C348.45,363.29,346.82,392.58,327.55,412.57Z"/>
</g>
</svg>