<!DOCTYPE svg PUBLIC "-//W3C//DTD SVG 1.1//EN" "http://www.w3.org/Graphics/SVG/1.1/DTD/svg11.dtd">
<!-- Uploaded to: SVG Repo, www.svgrepo.com, Transformed by: SVG Repo Mixer Tools -->
<svg fill="#2a2e2c" height="800px" width="800px" version="1.1" id="Capa_1" xmlns="http://www.w3.org/2000/svg" xmlns:xlink="http://www.w3.org/1999/xlink" viewBox="0 0 304.053 304.053" xml:space="preserve">
<g id="SVGRepo_bgCarrier" stroke-width="0"/>
<g id="SVGRepo_tracerCarrier" stroke-linecap="round" stroke-linejoin="round"/>
<g id="SVGRepo_iconCarrier"> <path d="M232.393,79.832h-30.038V24.206C202.354,10.858,191.495,0,178.148,0h-52.661c-13.349,0-24.206,10.858-24.206,24.206v55.627 h-29.62c-11.435,0-20.702,9.271-20.702,20.703v182.816c0,11.43,9.267,20.701,20.702,20.701h160.732 c11.435,0,20.701-9.272,20.701-20.701V100.536C253.094,89.104,243.827,79.832,232.393,79.832z M121.665,24.206 c0-2.106,1.712-3.822,3.822-3.822h52.661c2.108,0,3.821,1.717,3.821,3.822v55.627h-60.305V24.206z M148.691,131.654v-3.463 c0-1.148,0.625-2.205,1.632-2.755c0.47-0.26,0.99-0.387,1.51-0.387c0.588,0,1.176,0.165,1.691,0.495l18.52,11.827 c0.903,0.579,1.45,1.575,1.45,2.649c0,1.073-0.547,2.07-1.452,2.649l-18.518,11.825c-0.516,0.329-1.104,0.495-1.691,0.495 c-0.52,0-1.04-0.129-1.51-0.387c-1.007-0.551-1.632-1.609-1.632-2.755v-0.335c-27.793,3.022-36.166,28.675-33.838,41.289 c-10.178-4.906-10.605-5.374-12.995-5.374c-2.844,0-7.022,4.054-7.022,4.054C92.985,157.06,121.697,131.539,148.691,131.654z M104.226,219.529l-1.056,0.653c-0.507,0.313-1.078,0.468-1.651,0.468c-0.534,0-1.069-0.135-1.553-0.408 c-0.997-0.568-1.607-1.634-1.589-2.781l0.337-21.971c0.016-1.073,0.578-2.063,1.492-2.625c0.505-0.311,1.077-0.471,1.652-0.471 c0.464,0,0.929,0.104,1.361,0.313l19.793,9.541c1.032,0.498,1.713,1.521,1.772,2.667c0.061,1.146-0.511,2.233-1.486,2.839 l-2.206,1.362c4.34,6.688,28.144,29.983,56.764,4.68l3.824,13.532c0.696,2.47,2.518,4.383,4.883,5.304 C164.02,251.852,122.372,248.968,104.226,219.529z M208.205,213.202l-16.677,14.307c-0.579,0.494-1.306,0.758-2.046,0.758 c-0.304,0-0.611-0.044-0.907-0.134c-1.025-0.311-1.824-1.122-2.115-2.154l-5.973-21.143c-0.311-1.105,0.005-2.292,0.823-3.096 c0.596-0.584,1.39-0.901,2.2-0.901c0.305,0,0.61,0.046,0.908,0.136l1.356,0.409c9.37-28.086-12.281-44.965-21.755-47.699 l10.694-6.829c2.346-1.498,3.746-4.053,3.746-6.836c0-0.583-0.097-1.146-0.214-1.7c31.055,17.975,33.218,50.153,26.555,68.804 l2.266,0.685c1.101,0.331,1.93,1.236,2.166,2.359C209.472,211.291,209.077,212.454,208.205,213.202z"/> </g>
</svg>